<svg width="28" height="30" viewBox="0 0 28 30" fill="none" xmlns="http://www.w3.org/2000/svg">
<path d="M9.72027 6.16808C9.06658 5.51439 8.7776 5.19384 8.77771 4.44424C8.7776 3.69493 9.06669 3.37438 9.72056 2.7204C10.2413 2.19979 10.2413 1.35571 9.72067 0.834992C9.20007 0.314213 8.35571 0.314385 7.83498 0.834878C7.10744 1.56236 6.1108 2.55878 6.11108 4.44418C6.1108 6.32987 7.10727 7.32623 7.83493 8.0536C8.48868 8.70747 8.77777 9.02819 8.77777 9.77762C8.77777 10.514 9.37475 11.111 10.1111 11.111C10.8475 11.111 11.4445 10.5141 11.4445 9.77762C11.4443 7.89198 10.4479 6.89557 9.72027 6.16808Z" fill="white"/>
<path d="M15.9424 6.16808C15.2887 5.51439 14.9998 5.19384 14.9999 4.44424C14.9998 3.69493 15.2889 3.37438 15.9427 2.7204C16.4635 2.19979 16.4635 1.35571 15.9428 0.834992C15.4222 0.314213 14.5779 0.314385 14.0572 0.834878C13.3296 1.56236 12.333 2.55889 12.3333 4.44418C12.333 6.32987 13.3294 7.32623 14.0571 8.0536C14.7108 8.70747 14.9999 9.02819 14.9999 9.77762C14.9999 10.514 15.5969 11.111 16.3333 11.111C17.0697 11.111 17.6666 10.5141 17.6666 9.77762C17.6666 7.89198 16.6701 6.89557 15.9424 6.16808Z" fill="white"/>
<path d="M21.2956 23.5555H22.5556C22.5568 23.5555 22.5578 23.5553 22.5591 23.5553C25.2531 23.5535 27.4445 21.3612 27.4445 18.6666C27.4445 15.9708 25.2513 13.7776 22.5556 13.7776H20.7778H3.00005C2.26369 13.7776 1.66671 14.3747 1.66671 15.111V19.5554C1.66671 22.5457 2.95737 25.24 5.01081 27.111H2.11118C1.37481 27.111 0.777832 27.7078 0.777832 28.4443C0.777832 29.1806 1.37481 29.7777 2.11118 29.7777H11.8889H21.6667C22.4031 29.7777 23.0001 29.1806 23.0001 28.4443C23.0001 27.7079 22.4031 27.111 21.6667 27.111H18.7671C19.8463 26.1276 20.7144 24.917 21.2956 23.5555ZM22.1112 19.5555V16.4444H22.5556C23.781 16.4444 24.7779 17.4413 24.7779 18.6666C24.7779 19.892 23.781 20.8888 22.5556 20.8888C22.555 20.8888 22.5545 20.8888 22.5539 20.8888H22.0242C22.0813 20.4523 22.1112 20.0073 22.1112 19.5555Z" fill="white"/>
</svg>
