<svg width="18" height="19" viewBox="0 0 18 19" fill="none" xmlns="http://www.w3.org/2000/svg">
<path fill-rule="evenodd" clip-rule="evenodd" d="M2.97273 3.70001C2.07652 3.70001 1.35 4.40516 1.35 5.27501V16.975C1.35 17.8449 2.07652 18.55 2.97273 18.55H15.0273C15.9235 18.55 16.65 17.8449 16.65 16.975V5.27501C16.65 4.40516 15.9235 3.70001 15.0273 3.70001H2.97273ZM2.74091 8.87501V16.975C2.74091 17.0993 2.8447 17.2 2.97273 17.2H15.0273C15.1553 17.2 15.2591 17.0993 15.2591 16.975V8.87501H2.74091Z" fill="#797979"/>
<path fill-rule="evenodd" clip-rule="evenodd" d="M12.7298 10.2049C12.9895 10.4724 12.9831 10.8997 12.7156 11.1594L8.54285 15.2094C8.28097 15.4635 7.86449 15.4635 7.60261 15.2094L5.28443 12.9594C5.01692 12.6997 5.01054 12.2724 5.27018 12.0049C5.52982 11.7374 5.95716 11.731 6.22467 11.9906L8.07273 13.7843L11.7753 10.1906C12.0428 9.93099 12.4702 9.93737 12.7298 10.2049Z" fill="#797979"/>
<mask id="path-3-outside-1" maskUnits="userSpaceOnUse" x="3.59545" y="0.900024" width="11" height="6" fill="black">
<rect fill="white" x="3.59545" y="0.900024" width="11" height="6"/>
<path fill-rule="evenodd" clip-rule="evenodd" d="M5.29091 1.90002C4.90682 1.90002 4.59545 2.21139 4.59545 2.59548V4.80457C4.59545 5.18866 4.90682 5.50002 5.29091 5.50002C5.67499 5.50002 5.98636 5.18866 5.98636 4.80457V2.59548C5.98636 2.21139 5.67499 1.90002 5.29091 1.90002ZM12.7091 1.90002C12.325 1.90002 12.0136 2.21139 12.0136 2.59548V4.80457C12.0136 5.18866 12.325 5.50002 12.7091 5.50002C13.0932 5.50002 13.4046 5.18866 13.4046 4.80457V2.59548C13.4046 2.21139 13.0932 1.90002 12.7091 1.90002Z"/>
</mask>
<path fill-rule="evenodd" clip-rule="evenodd" d="M5.29091 1.90002C4.90682 1.90002 4.59545 2.21139 4.59545 2.59548V4.80457C4.59545 5.18866 4.90682 5.50002 5.29091 5.50002C5.67499 5.50002 5.98636 5.18866 5.98636 4.80457V2.59548C5.98636 2.21139 5.67499 1.90002 5.29091 1.90002ZM12.7091 1.90002C12.325 1.90002 12.0136 2.21139 12.0136 2.59548V4.80457C12.0136 5.18866 12.325 5.50002 12.7091 5.50002C13.0932 5.50002 13.4046 5.18866 13.4046 4.80457V2.59548C13.4046 2.21139 13.0932 1.90002 12.7091 1.90002Z" fill="#797979"/>
<path d="M5.59545 2.59548C5.59545 2.76367 5.4591 2.90002 5.29091 2.90002V0.900024C4.35453 0.900024 3.59545 1.65911 3.59545 2.59548H5.59545ZM5.59545 4.80457V2.59548H3.59545V4.80457H5.59545ZM5.29091 4.50002C5.4591 4.50002 5.59545 4.63637 5.59545 4.80457H3.59545C3.59545 5.74094 4.35453 6.50002 5.29091 6.50002V4.50002ZM4.98636 4.80457C4.98636 4.63637 5.12271 4.50002 5.29091 4.50002V6.50002C6.22728 6.50002 6.98636 5.74094 6.98636 4.80457H4.98636ZM4.98636 2.59548V4.80457H6.98636V2.59548H4.98636ZM5.29091 2.90002C5.12271 2.90002 4.98636 2.76367 4.98636 2.59548H6.98636C6.98636 1.65911 6.22728 0.900024 5.29091 0.900024V2.90002ZM13.0136 2.59548C13.0136 2.76367 12.8773 2.90002 12.7091 2.90002V0.900024C11.7727 0.900024 11.0136 1.65911 11.0136 2.59548H13.0136ZM13.0136 4.80457V2.59548H11.0136V4.80457H13.0136ZM12.7091 4.50002C12.8773 4.50002 13.0136 4.63637 13.0136 4.80457H11.0136C11.0136 5.74094 11.7727 6.50002 12.7091 6.50002V4.50002ZM12.4046 4.80457C12.4046 4.63637 12.5409 4.50002 12.7091 4.50002V6.50002C13.6455 6.50002 14.4046 5.74094 14.4046 4.80457H12.4046ZM12.4046 2.59548V4.80457H14.4046V2.59548H12.4046ZM12.7091 2.90002C12.5409 2.90002 12.4046 2.76368 12.4046 2.59548H14.4046C14.4046 1.6591 13.6455 0.900024 12.7091 0.900024V2.90002Z" fill="white" mask="url(#path-3-outside-1)"/>
</svg>
