<svg width="21" height="20" viewBox="0 0 21 20" fill="none" xmlns="http://www.w3.org/2000/svg">
<path fill-rule="evenodd" clip-rule="evenodd" d="M8.04761 13.6916C11.4358 13.6916 14.0952 11.0267 14.0952 7.84578C14.0952 4.66483 11.4358 2 8.04761 2C4.65942 2 2 4.66483 2 7.84578C2 11.0267 4.65942 13.6916 8.04761 13.6916ZM14.5979 12.4048C15.5405 11.1198 16.0952 9.54596 16.0952 7.84578C16.0952 3.51268 12.4922 0 8.04761 0C3.60304 0 0 3.51268 0 7.84578C0 12.1789 3.60304 15.6916 8.04761 15.6916C9.64577 15.6916 11.1351 15.2374 12.3873 14.4542L17.8164 19.266C18.4363 19.8154 19.3844 19.7583 19.9338 19.1383C20.4833 18.5183 20.4262 17.5703 19.8062 17.0208L14.5979 12.4048ZM6.04163 3.92288C6.04163 3.3706 6.48934 2.92288 7.04163 2.92288C10.3477 2.92288 13.0714 5.54223 13.0714 8.82651C13.0714 9.37879 12.6237 9.82651 12.0714 9.82651C11.5191 9.82651 11.0714 9.37879 11.0714 8.82651C11.0714 6.69439 9.29131 4.92288 7.04163 4.92288C6.48934 4.92288 6.04163 4.47517 6.04163 3.92288Z" fill="white"/>
</svg>
