<svg width="35" height="35" viewBox="0 0 35 35" fill="none" xmlns="http://www.w3.org/2000/svg">
<path d="M17.5 0.000976562C7.83603 0.000976562 0 7.83547 0 17.5002C0 27.1649 7.83526 34.9994 17.5 34.9994C27.1655 34.9994 35 27.1649 35 17.5002C35 7.83547 27.1655 0.000976562 17.5 0.000976562ZM17.5 5.23345C20.6978 5.23345 23.289 7.82547 23.289 11.0217C23.289 14.2187 20.6978 16.8099 17.5 16.8099C14.3038 16.8099 11.7125 14.2187 11.7125 11.0217C11.7125 7.82547 14.3038 5.23345 17.5 5.23345ZM17.4962 30.4242C14.3069 30.4242 11.3858 29.2627 9.13281 27.3402C8.58396 26.8721 8.26726 26.1856 8.26726 25.4654C8.26726 22.2238 10.8908 19.6295 14.1331 19.6295H20.8684C24.1115 19.6295 26.725 22.2238 26.725 25.4654C26.725 26.1864 26.4099 26.8713 25.8603 27.3394C23.608 29.2627 20.6862 30.4242 17.4962 30.4242Z" fill="#FF8000"/>
</svg>
