<svg width="150" height="54" viewBox="0 0 150 54" fill="none" xmlns="http://www.w3.org/2000/svg">
<path d="M22.737 19.761C21.444 18.672 19.416 18 16.5 18C10.74 18 8.445 20.661 8.445 23.868C8.445 25.809 9.345 27.579 11.445 28.632C9.645 30.114 8.445 31.734 8.445 33.636C8.445 34.818 9.009 35.94 10.476 36.636C8.676 37.434 7.677 38.718 7.677 40.236C7.677 42.312 9.246 44.436 15.588 44.436C23.025 44.436 26.988 41.376 26.988 37.437C26.988 34.194 25.02 31.86 18.825 31.86H14.781C13.281 31.86 12.666 31.386 12.666 30.585C12.6534 30.1118 12.7382 29.6411 12.915 29.202C14.0854 29.5043 15.2914 29.6466 16.5 29.625C22.26 29.625 24.555 26.925 24.555 23.865C24.5668 22.9662 24.3609 22.0779 23.955 21.276H27.393V18.252L26.811 17.886L22.737 19.761ZM15.693 37.863H19.338C21.051 37.863 21.633 38.811 21.633 39.663C21.633 41.049 19.884 42.063 16.347 42.063C12.81 42.063 11.427 41.163 11.427 39.063C11.4014 38.5003 11.504 37.9392 11.727 37.422C13.0213 37.757 14.3568 37.9055 15.693 37.863ZM16.5 27.801C15.042 27.801 14.532 26.343 14.532 23.793C14.532 21.243 15.144 19.818 16.5 19.818C17.856 19.818 18.54 21.24 18.54 23.793C18.54 26.346 17.952 27.801 16.5 27.801Z" fill="#FF8000"/>
<path d="M37.2 28.677V15.516L37.344 10.449L36.726 10.05L28.305 11.7V13.338L30.273 13.704V28.677C30.273 30.4771 30.254 32.2851 30.216 34.1011L28.56 34.4731V36.3331H38.913V34.4731L37.254 34.1341C37.218 32.3161 37.2 30.4971 37.2 28.677Z" fill="#FF8000"/>
<path d="M50.175 18C44.562 18 40.554 21.9 40.554 27.33C40.554 32.76 43.905 36.93 50.175 36.93C56.445 36.93 59.799 32.883 59.799 27.33C59.799 21.777 55.8 18 50.175 18ZM50.175 34.914C48.573 34.914 47.844 32.763 47.844 27.441C47.844 22.119 48.573 20.004 50.175 20.004C51.777 20.004 52.5 22.152 52.5 27.438C52.5 32.724 51.78 34.911 50.175 34.911V34.914Z" fill="#FF8000"/>
<path d="M71.829 33.4891C70.809 33.4891 70.029 32.7241 70.029 31.0891V21.3001H73.38V18.5791H70.044V13.4041H65.7L63.504 18.6001L61.038 18.9001V21.3001H63.117V27.5701C63.117 28.9921 63.081 30.0511 63.081 31.4701C63.081 35.3701 65.157 36.9001 68.766 36.9001C71.766 36.9001 73.542 35.7001 74.526 33.5821L73.626 32.7451C72.996 33.2341 72.45 33.4891 71.829 33.4891Z" fill="#FF8000"/>
<path d="M88.416 18C86.655 18 84.594 19.485 83.616 22.605L83.34 18.405L82.692 18L74.637 20.514V22.014L76.605 22.344C76.677 23.802 76.713 24.384 76.713 26.388V28.686C76.713 30.186 76.698 32.337 76.665 34.086L74.928 34.473V36.333H86.52V34.473L83.682 33.843C83.655 32.13 83.64 30.105 83.64 28.677V26.379C83.919 24.735 84.912 23.064 85.788 22.062L85.971 22.335C86.919 23.718 87.831 24.339 89.034 24.339C90.492 24.339 91.695 23.208 91.806 21.24C91.551 19.017 90.201 18 88.416 18Z" fill="#FF8000"/>
<path d="M101.4 28.677V23.829L101.511 18.396L100.845 18L92.4 20.511V22.011L94.368 22.341C94.44 23.799 94.476 24.927 94.476 26.934V28.683C94.476 30.183 94.461 32.34 94.428 34.101L92.802 34.479V36.339H102.972V34.479L101.454 34.179C101.4 32.4 101.4 30.195 101.4 28.677Z" fill="#FF8000"/>
<path d="M97.857 15.8461C99.714 15.8461 101.208 14.5321 101.208 12.7111C101.208 10.89 99.708 9.57605 97.857 9.57605C96.006 9.57605 94.5 10.8871 94.5 12.7111C94.5 14.5351 96 15.8461 97.857 15.8461Z" fill="#FF8000"/>
<path d="M115.644 19.965H115.8L115.872 21.492C116.019 24.699 117.477 25.647 119.007 25.647C120.465 25.647 121.302 24.993 121.776 23.547C121.596 20.547 118.899 18.006 114.816 18.006C108.945 18.006 104.388 21.468 104.388 27.519C104.388 33.861 108.873 36.924 113.832 36.924C117.294 36.924 120.027 35.613 121.596 32.658L120.174 31.275C119.154 32.259 118.059 32.988 116.454 32.988C113.538 32.988 111.681 30.765 111.681 26.718C111.672 21.678 113.967 19.965 115.644 19.965Z" fill="#FF8000"/>
<path d="M132.705 18C127.089 18 123.081 21.9 123.081 27.33C123.081 32.76 126.435 36.93 132.705 36.93C138.975 36.93 142.329 32.883 142.329 27.33C142.329 21.777 138.318 18 132.705 18ZM132.705 34.914C131.1 34.914 130.371 32.763 130.371 27.441C130.371 22.119 131.1 20.004 132.705 20.004C134.31 20.004 135.036 22.155 135.036 27.441C135.036 32.727 134.307 34.911 132.705 34.911V34.914Z" fill="#FF8000"/>
</svg>
