<svg width="150" height="53" viewBox="0 0 150 53" fill="none" xmlns="http://www.w3.org/2000/svg">
<path d="M22.737 19.0715C21.444 18.0205 19.416 17.3719 16.5 17.3719C10.74 17.3719 8.445 19.9401 8.445 23.0352C8.445 24.9084 9.345 26.6167 11.445 27.6329C9.645 29.0632 8.445 30.6267 8.445 32.4623C8.445 33.6031 9.009 34.6859 10.476 35.3576C8.676 36.1278 7.677 37.367 7.677 38.832C7.677 40.8356 9.246 42.8855 15.588 42.8855C23.025 42.8855 26.988 39.9322 26.988 36.1307C26.988 33.0008 25.02 30.7483 18.825 30.7483H14.781C13.281 30.7483 12.666 30.2908 12.666 29.5178C12.6534 29.0611 12.7382 28.6068 12.915 28.183C14.0854 28.4748 15.2914 28.6122 16.5 28.5913C22.26 28.5913 24.555 25.9855 24.555 23.0323C24.5668 22.1649 24.3609 21.3076 23.955 20.5336H27.393V17.6151L26.811 17.2619L22.737 19.0715ZM15.693 36.5418H19.338C21.051 36.5418 21.633 37.4567 21.633 38.279C21.633 39.6167 19.884 40.5953 16.347 40.5953C12.81 40.5953 11.427 39.7267 11.427 37.7C11.4014 37.1569 11.504 36.6154 11.727 36.1162C13.0213 36.4396 14.3568 36.5829 15.693 36.5418ZM16.5 26.8309C15.042 26.8309 14.532 25.4238 14.532 22.9628C14.532 20.5018 15.144 19.1265 16.5 19.1265C17.856 19.1265 18.54 20.4989 18.54 22.9628C18.54 25.4267 17.952 26.8309 16.5 26.8309Z" fill="white"/>
<path d="M37.2 27.6763V14.9745L37.344 10.0844L36.726 9.69928L28.305 11.2917V12.8725L30.273 13.2258V27.6763C30.273 29.4135 30.254 31.1584 30.216 32.911L28.56 33.2701V35.0652H38.913V33.2701L37.254 32.9429C37.218 31.1883 37.2 29.4328 37.2 27.6763Z" fill="white"/>
<path d="M50.175 17.3719C44.562 17.3719 40.554 21.1358 40.554 26.3763C40.554 31.6169 43.905 35.6413 50.175 35.6413C56.445 35.6413 59.799 31.7356 59.799 26.3763C59.799 21.0171 55.8 17.3719 50.175 17.3719ZM50.175 33.6957C48.573 33.6957 47.844 31.6197 47.844 26.4835C47.844 21.3472 48.573 19.306 50.175 19.306C51.777 19.306 52.5 21.379 52.5 26.4806C52.5 31.5821 51.78 33.6928 50.175 33.6928V33.6957Z" fill="white"/>
<path d="M71.829 32.3204C70.809 32.3204 70.029 31.5821 70.029 30.0042V20.5568H73.38V17.9307H70.044V12.9363H65.7L63.504 17.951L61.038 18.2405V20.5568H63.117V26.608C63.117 27.9804 63.081 29.0024 63.081 30.3719C63.081 34.1358 65.157 35.6124 68.766 35.6124C71.766 35.6124 73.542 34.4543 74.526 32.4102L73.626 31.6024C72.996 32.0743 72.45 32.3204 71.829 32.3204Z" fill="white"/>
<path d="M88.416 17.3719C86.655 17.3719 84.594 18.8051 83.616 21.8162L83.34 17.7628L82.692 17.3719L74.637 19.7982V21.2458L76.605 21.5643C76.677 22.9714 76.713 23.5331 76.713 25.4672V27.685C76.713 29.1327 76.698 31.2086 76.665 32.8966L74.928 33.2701V35.0652H86.52V33.2701L83.682 32.6621C83.655 31.0088 83.64 29.0545 83.64 27.6763V25.4585C83.919 23.8719 84.912 22.2592 85.788 21.2921L85.971 21.5556C86.919 22.8904 87.831 23.4897 89.034 23.4897C90.492 23.4897 91.695 22.3982 91.806 20.4988C91.551 18.3534 90.201 17.3719 88.416 17.3719Z" fill="white"/>
<path d="M101.4 27.6763V22.9975L101.511 17.7541L100.845 17.3719L92.4 19.7953V21.2429L94.368 21.5614C94.44 22.9685 94.476 24.0572 94.476 25.9941V27.6821C94.476 29.1298 94.461 31.2115 94.428 32.9111L92.802 33.2759V35.071H102.972V33.2759L101.454 32.9863C101.4 31.2694 101.4 29.1414 101.4 27.6763Z" fill="white"/>
<path d="M97.857 15.2931C99.714 15.2931 101.208 14.0249 101.208 12.2675C101.208 10.51 99.708 9.24188 97.857 9.24188C96.006 9.24188 94.5 10.5071 94.5 12.2675C94.5 14.0278 96 15.2931 97.857 15.2931Z" fill="white"/>
<path d="M115.644 19.2683H115.8L115.872 20.742C116.019 23.8371 117.477 24.7521 119.007 24.7521C120.465 24.7521 121.302 24.1209 121.776 22.7253C121.596 19.83 118.899 17.3777 114.816 17.3777C108.945 17.3777 104.388 20.7189 104.388 26.5587C104.388 32.6794 108.873 35.6356 113.832 35.6356C117.294 35.6356 120.027 34.3703 121.596 31.5184L120.174 30.1837C119.154 31.1333 118.059 31.8369 116.454 31.8369C113.538 31.8369 111.681 29.6915 111.681 25.7857C111.672 20.9216 113.967 19.2683 115.644 19.2683Z" fill="white"/>
<path d="M132.705 17.3719C127.089 17.3719 123.081 21.1358 123.081 26.3763C123.081 31.6169 126.435 35.6413 132.705 35.6413C138.975 35.6413 142.329 31.7356 142.329 26.3763C142.329 21.0171 138.318 17.3719 132.705 17.3719ZM132.705 33.6957C131.1 33.6957 130.371 31.6197 130.371 26.4835C130.371 21.3472 131.1 19.306 132.705 19.306C134.31 19.306 135.036 21.3819 135.036 26.4835C135.036 31.585 134.307 33.6928 132.705 33.6928V33.6957Z" fill="white"/>
</svg>
