<svg width="151" height="55" viewBox="0 0 151 55" fill="none" xmlns="http://www.w3.org/2000/svg">
<path d="M23.3712 20.1884C22.0809 19.0885 20.0571 18.4098 17.1472 18.4098C11.3991 18.4098 9.10893 21.0974 9.10893 24.3365C9.10893 26.2969 10.0071 28.0846 12.1027 29.1481C10.3064 30.645 9.10893 32.2812 9.10893 34.2022C9.10893 35.396 9.67175 36.5292 11.1357 37.2322C9.33945 38.0382 8.34253 39.335 8.34253 40.8682C8.34253 42.9649 9.90826 45.1102 16.2371 45.1102C23.6586 45.1102 27.6133 42.0196 27.6133 38.0412C27.6133 34.7658 25.6494 32.4084 19.4673 32.4084H15.4317C13.9349 32.4084 13.3211 31.9297 13.3211 31.1207C13.3086 30.6427 13.3932 30.1673 13.5696 29.7238C14.7376 30.0292 15.941 30.1729 17.1472 30.1511C22.8952 30.1511 25.1854 27.4241 25.1854 24.3335C25.1971 23.4257 24.9917 22.5286 24.5866 21.7186H28.0175V18.6643L27.4367 18.2947L23.3712 20.1884ZM16.3418 38.4714H19.9792C21.6887 38.4714 22.2695 39.4289 22.2695 40.2895C22.2695 41.6893 20.5241 42.7135 16.9945 42.7135C13.4648 42.7135 12.0847 41.8045 12.0847 39.6835C12.0591 39.1152 12.1615 38.5484 12.3841 38.026C13.6757 38.3644 15.0084 38.5144 16.3418 38.4714ZM17.1472 28.3088C15.6922 28.3088 15.1832 26.8362 15.1832 24.2607C15.1832 21.6852 15.794 20.246 17.1472 20.246C18.5003 20.246 19.1829 21.6822 19.1829 24.2607C19.1829 26.8393 18.5961 28.3088 17.1472 28.3088Z" fill="#003580"/>
<path d="M37.804 29.1936V15.901L37.9477 10.7834L37.331 10.3804L28.9276 12.0469V13.7013L30.8915 14.0709V29.1936C30.8915 31.0116 30.8725 32.8377 30.8346 34.6719L29.182 35.0476V36.9262H39.5135V35.0476L37.8579 34.7052C37.822 32.869 37.804 31.0318 37.804 29.1936Z" fill="#003580"/>
<path d="M50.752 18.4099C45.1507 18.4099 41.151 22.3489 41.151 27.8332C41.151 33.3175 44.495 37.5292 50.752 37.5292C57.0089 37.5292 60.3559 33.4417 60.3559 27.8332C60.3559 22.2247 56.3652 18.4099 50.752 18.4099ZM50.752 35.4931C49.1533 35.4931 48.4258 33.3205 48.4258 27.9453C48.4258 22.5701 49.1533 20.434 50.752 20.434C52.3506 20.434 53.0721 22.6034 53.0721 27.9423C53.0721 33.2812 52.3536 35.49 50.752 35.49V35.4931Z" fill="#003580"/>
<path d="M72.3609 34.0538C71.343 34.0538 70.5646 33.2811 70.5646 31.6298V21.7429H73.9086V18.9947H70.5796V13.7679H66.2446L64.0532 19.0159L61.5923 19.3189V21.7429H63.667V28.0756C63.667 29.5118 63.6311 30.5814 63.6311 32.0146C63.6311 35.9536 65.7028 37.4989 69.3042 37.4989C72.298 37.4989 74.0703 36.2869 75.0522 34.1477L74.1541 33.3024C73.5254 33.7962 72.9806 34.0538 72.3609 34.0538Z" fill="#003580"/>
<path d="M88.9133 18.4099C87.156 18.4099 85.0993 19.9098 84.1233 23.061L83.8479 18.819L83.2013 18.4099L75.163 20.9491V22.4641L77.1269 22.7974C77.1988 24.2699 77.2347 24.8577 77.2347 26.8818V29.2028C77.2347 30.7178 77.2197 32.8903 77.1868 34.6568L75.4534 35.0476V36.9262H87.0213V35.0476L84.1892 34.4113C84.1622 32.6812 84.1473 30.636 84.1473 29.1937V26.8727C84.4257 25.2123 85.4166 23.5246 86.2908 22.5125L86.4734 22.7883C87.4194 24.1851 88.3295 24.8123 89.53 24.8123C90.985 24.8123 92.1855 23.67 92.2963 21.6823C92.0418 19.4371 90.6946 18.4099 88.9133 18.4099Z" fill="#003580"/>
<path d="M101.87 29.1937V24.2972L101.981 18.8099L101.316 18.4099L92.889 20.946V22.461L94.8529 22.7943C94.9248 24.2669 94.9607 25.4062 94.9607 27.4333V29.1997C94.9607 30.7147 94.9458 32.8933 94.9128 34.6719L93.2902 35.0537V36.9323H103.439V35.0537L101.924 34.7507C101.87 32.9539 101.87 30.7269 101.87 29.1937Z" fill="#003580"/>
<path d="M98.3346 16.2343C100.188 16.2343 101.679 14.9072 101.679 13.068C101.679 11.2288 100.182 9.90161 98.3346 9.90161C96.4875 9.90161 94.9846 11.2257 94.9846 13.068C94.9846 14.9102 96.4815 16.2343 98.3346 16.2343Z" fill="#003580"/>
<path d="M116.085 20.3945H116.24L116.312 21.9368C116.459 25.1758 117.914 26.1333 119.441 26.1333C120.896 26.1333 121.731 25.4728 122.204 24.0123C122.024 20.9823 119.333 18.4159 115.258 18.4159C109.4 18.4159 104.852 21.9125 104.852 28.024C104.852 34.4295 109.328 37.5231 114.276 37.5231C117.731 37.5231 120.458 36.199 122.024 33.2144L120.605 31.8176C119.587 32.8114 118.495 33.5477 116.893 33.5477C113.983 33.5477 112.13 31.3025 112.13 27.215C112.121 22.1246 114.411 20.3945 116.085 20.3945Z" fill="#003580"/>
<path d="M133.11 18.4099C127.506 18.4099 123.506 22.3489 123.506 27.8332C123.506 33.3175 126.853 37.5292 133.11 37.5292C139.367 37.5292 142.714 33.4417 142.714 27.8332C142.714 22.2247 138.711 18.4099 133.11 18.4099ZM133.11 35.4931C131.508 35.4931 130.781 33.3205 130.781 27.9453C130.781 22.5701 131.508 20.434 133.11 20.434C134.712 20.434 135.436 22.6065 135.436 27.9453C135.436 33.2842 134.709 35.49 133.11 35.49V35.4931Z" fill="#003580"/>
</svg>
