<svg width="28" height="28" viewBox="0 0 28 28" fill="none" xmlns="http://www.w3.org/2000/svg">
<path d="M26.6471 23.3534L16.1844 12.8906L3.96047 0.666687H3.00516L2.81009 1.16235C2.29526 2.47062 2.07528 3.80871 2.17404 5.03178C2.28661 6.42594 2.81624 7.63296 3.70578 8.5225L13.2484 18.0651L14.5071 16.8065L23.3293 26.6713C24.2069 27.549 25.7174 27.6011 26.6471 26.6713C27.5619 25.7565 27.5619 24.2681 26.6471 23.3534Z" fill="white"/>
<path d="M8.82642 15.855L1.35266 23.3287C0.437948 24.2435 0.437948 25.7319 1.35266 26.6466C2.22161 27.5156 3.72485 27.5923 4.67051 26.6466L12.1443 19.1728L8.82642 15.855Z" fill="white"/>
<path d="M26.2078 5.10936L21.9683 9.34886L20.8623 8.24289L25.1018 4.00334L23.9959 2.89737L19.7564 7.13687L18.6504 6.0309L22.8899 1.7914L21.784 0.685486L16.2542 6.21533C15.5777 6.89183 15.1737 7.79007 15.1166 8.7447C15.1022 8.98656 15.0474 9.22446 14.9564 9.45074L18.5486 13.0429C18.7749 12.9519 19.0128 12.8971 19.2547 12.8827C20.2093 12.8257 21.1075 12.4217 21.784 11.7452L27.3139 6.21538L26.2078 5.10936Z" fill="white"/>
</svg>
