<svg width="29" height="28" viewBox="0 0 29 28" fill="none" xmlns="http://www.w3.org/2000/svg">
<path d="M12.3549 3.21723C12.3549 2.26877 11.8838 1.33286 11.0943 0.806541C10.7094 0.55226 10.1952 0.653842 9.94091 1.03721C9.68598 1.41972 9.78995 1.93629 10.1716 2.19058C10.5023 2.41063 10.6914 2.82021 10.6914 3.21745C10.6914 3.61468 10.5023 3.96881 10.1716 4.18887C9.3821 4.71519 8.91101 5.59565 8.91101 6.54433C8.91101 7.49301 9.3821 8.37346 10.1716 8.89979C10.5606 9.15753 11.0743 9.04577 11.3249 8.66911C11.5801 8.28661 11.477 7.77068 11.0943 7.51575C10.7638 7.29547 10.5745 6.94134 10.5745 6.54411C10.5745 6.14688 10.7638 5.79296 11.0943 5.57269C11.8838 5.04636 12.3549 4.16591 12.3549 3.21723Z" fill="white"/>
<path d="M16.5134 3.21723C16.5134 2.26877 16.0423 1.33286 15.2528 0.806541C14.868 0.55226 14.3538 0.653842 14.0995 1.03721C13.8446 1.41972 13.9485 1.93629 14.3302 2.19058C14.6609 2.41063 14.85 2.82021 14.85 3.21745C14.85 3.61468 14.6609 3.96881 14.3302 4.18887C13.5407 4.71519 13.0696 5.59565 13.0696 6.54433C13.0696 7.49301 13.5407 8.37346 14.3302 8.89979C14.7192 9.15753 15.2329 9.04577 15.4835 8.66911C15.7387 8.28661 15.6356 7.77068 15.2528 7.51575C14.9223 7.29547 14.733 6.94134 14.733 6.54411C14.733 6.14688 14.9223 5.79296 15.2528 5.57269C16.0423 5.04636 16.5134 4.16591 16.5134 3.21723Z" fill="white"/>
<path d="M20.672 3.21723C20.672 2.26877 20.2009 1.33286 19.4114 0.806541C19.0265 0.55226 18.5123 0.653842 18.2581 1.03721C18.0031 1.41972 18.1071 1.93629 18.4887 2.19058C18.8195 2.41063 19.0085 2.82021 19.0085 3.21745C19.0085 3.61468 18.8195 3.96881 18.4887 4.18887C17.6992 4.71519 17.2281 5.59565 17.2281 6.54433C17.2281 7.49301 17.6992 8.37346 18.4887 8.89979C18.8777 9.15753 19.3915 9.04577 19.6421 8.66911C19.8972 8.28661 19.7941 7.77068 19.4114 7.51575C19.0809 7.29547 18.8916 6.94134 18.8916 6.54411C18.8916 6.14688 19.0809 5.79296 19.4114 5.57269C20.2009 5.04636 20.672 4.16591 20.672 3.21723Z" fill="white"/>
<path d="M24.3514 18.5342L22.096 21.9172C21.8454 22.2938 21.3317 22.4056 20.9426 22.1479C20.5601 21.8927 20.457 21.377 20.712 20.9945L22.6483 18.0902C21.8014 17.9022 20.9054 17.7439 19.9686 17.6228L17.1057 21.9172C16.8551 22.2938 16.3413 22.4056 15.9523 22.1479C15.5698 21.8927 15.4667 21.377 15.7217 20.9945L18.096 17.433C17.141 17.3572 16.1681 17.3137 15.191 17.304L12.1154 21.917C11.8648 22.2936 11.351 22.4056 10.962 22.1476C10.5795 21.8927 10.4764 21.377 10.7313 20.9943L13.1752 17.3291C12.1052 17.3681 11.0486 17.4484 10.0255 17.5665L7.12505 21.917C6.87445 22.2936 6.36069 22.4056 5.97169 22.1476C5.58918 21.8927 5.48608 21.377 5.74101 20.9943L7.8058 17.8972C3.69745 18.657 0.555542 20.1316 0.555542 22.2876C0.555542 25.564 7.72371 27.3333 14.7502 27.3333C21.7768 27.3333 28.9449 25.564 28.9449 22.2876C28.9449 20.6287 27.0632 19.3722 24.3514 18.5342Z" fill="white"/>
<path d="M24.351 11.8803L22.096 15.2635C21.8454 15.6402 21.3317 15.752 20.9426 15.4942C20.5601 15.2391 20.4568 14.7233 20.712 14.3408L22.6479 11.4363C21.8012 11.2483 20.9056 11.0902 19.9691 10.9691L17.1057 15.2633C16.8551 15.64 16.3413 15.752 15.9523 15.494C15.5698 15.2391 15.4667 14.7225 15.7217 14.3406L18.0964 10.7794C17.141 10.7036 16.1678 10.66 15.191 10.6501L12.1154 15.2633C11.8648 15.64 11.351 15.7517 10.962 15.494C10.5795 15.2391 10.4764 14.7233 10.7313 14.3406L13.1749 10.6752C12.105 10.7144 11.0489 10.7946 10.0257 10.9128L7.12527 15.2633C6.87445 15.64 6.36069 15.7517 5.9719 15.494C5.58918 15.2391 5.48608 14.7233 5.74123 14.3406L7.80602 11.2436C3.69745 12.0034 0.555542 13.4779 0.555542 15.6339C0.555542 16.5971 1.15139 17.3712 2.03293 17.9935C5.17159 16.3077 10.223 15.6339 14.7502 15.6339C19.271 15.6339 24.3137 16.3062 27.4532 17.9865C28.4283 17.2945 28.9449 16.5005 28.9449 15.6339C28.9449 13.975 27.0629 12.7186 24.351 11.8803Z" fill="white"/>
</svg>
