<svg width="28" height="28" viewBox="0 0 28 28" fill="none" xmlns="http://www.w3.org/2000/svg">
<path d="M21.8647 27.4443H6.1355C3.12034 27.4443 0.666748 24.9907 0.666748 21.9756C0.666748 21.5438 1.01618 21.1943 1.448 21.1943H26.5522C26.984 21.1943 27.3334 21.5438 27.3334 21.9756C27.3334 24.9907 24.8798 27.4443 21.8647 27.4443Z" fill="white"/>
<path d="M14.0001 0.777649C6.67664 0.777649 0.666748 5.3339 0.666748 10.9339C0.666748 11.3657 1.01618 11.7151 1.448 11.7151H26.5522C26.984 11.7151 27.3334 11.3657 27.3334 10.9339C27.3334 5.3339 21.3235 0.777649 14.0001 0.777649ZM8.25034 6.79874L6.68784 8.36124C6.38269 8.6664 5.88831 8.66645 5.5831 8.36124C5.27795 8.05609 5.27795 7.56166 5.5831 7.2565L7.1456 5.694C7.45076 5.38885 7.94518 5.38885 8.25034 5.694C8.5555 5.99916 8.55555 6.49359 8.25034 6.79874ZM12.9899 6.79874L11.4274 8.36124C11.1223 8.6664 10.6279 8.66645 10.3227 8.36124C10.0175 8.05609 10.0175 7.56166 10.3227 7.2565L11.8852 5.694C12.1903 5.38885 12.6848 5.38885 12.9899 5.694C13.2951 5.99916 13.2951 6.49359 12.9899 6.79874ZM17.6774 6.79874L16.1149 8.36124C15.8098 8.6664 15.3154 8.66645 15.0102 8.36124C14.705 8.05609 14.705 7.56166 15.0102 7.2565L16.5727 5.694C16.8778 5.38885 17.3723 5.38885 17.6774 5.694C17.9826 5.99916 17.9826 6.49359 17.6774 6.79874ZM21.9829 6.79874L20.4204 8.36124C20.1153 8.6664 19.6209 8.66645 19.3157 8.36124C19.0105 8.05609 19.0105 7.56166 19.3157 7.2565L20.8782 5.694C21.1834 5.38885 21.6778 5.38885 21.9829 5.694C22.2881 5.99916 22.2881 6.49359 21.9829 6.79874Z" fill="white"/>
<path d="M1.448 14.8922C1.823 14.8922 2.15112 14.939 2.43237 15.0172C2.32211 15.3724 2.29123 15.4786 2.22925 16.5797C2.02612 16.5015 1.77618 16.4547 1.448 16.4547C1.01045 16.4547 0.666748 16.1109 0.666748 15.6735C0.666748 15.2359 1.01045 14.8922 1.448 14.8922Z" fill="white"/>
<path d="M27.3332 15.6735C27.3332 16.1109 26.9896 16.4547 26.552 16.4547C26.2238 16.4547 25.9739 16.5015 25.7708 16.5797C25.7539 16.2798 25.7858 15.7199 25.5676 15.0172C25.8489 14.939 26.177 14.8922 26.552 14.8922C26.9896 14.8922 27.3332 15.2359 27.3332 15.6735Z" fill="white"/>
<path d="M2.43237 15.0171C3.1355 15.1891 3.60425 15.5328 3.99487 15.8297C4.47925 16.189 4.83857 16.4547 5.61982 16.4547C6.40107 16.4547 6.74487 16.189 7.22925 15.8296C7.79175 15.4077 8.53133 14.8922 9.82821 14.8922C11.1407 14.8922 11.8282 15.4078 12.3907 15.8296C12.8751 16.189 13.2188 16.4547 14.0001 16.4547C14.7813 16.4547 15.125 16.189 15.6095 15.8296C16.172 15.4077 16.8595 14.8922 18.172 14.8922C19.4689 14.8922 20.2085 15.4078 20.7709 15.8296C21.2553 16.189 21.5991 16.4547 22.3803 16.4547C23.1616 16.4547 23.5209 16.189 24.0053 15.8296C24.3959 15.5328 24.8647 15.1891 25.5678 15.0171C25.403 14.4031 25.1284 13.8369 24.7753 13.3297H3.22487C2.87175 13.8369 2.59716 14.4031 2.43237 15.0171Z" fill="white"/>
<path d="M24.7862 19.5797C25.3855 18.7245 25.7474 17.6924 25.771 16.5797C25.4585 16.689 25.2241 16.8765 24.9428 17.0797C24.3803 17.5016 23.6928 18.0172 22.3803 18.0172C21.0835 18.0172 20.396 17.5015 19.8335 17.0797C19.3491 16.7203 18.9532 16.4547 18.172 16.4547C17.3907 16.4547 17.0314 16.7203 16.547 17.0797C16.0002 17.5016 15.297 18.0172 14.0001 18.0172C12.7033 18.0172 12.0001 17.5015 11.4533 17.0797C10.9689 16.7203 10.6096 16.4547 9.82831 16.4547C9.04706 16.4547 8.65117 16.7203 8.1668 17.0797C7.6043 17.5015 6.9168 18.0172 5.61987 18.0172C4.30742 18.0172 3.61993 17.5015 3.05743 17.0797C2.77607 16.8765 2.54175 16.689 2.22925 16.5797C2.25279 17.6924 2.61472 18.7245 3.21399 19.5797H24.7862Z" fill="white"/>
</svg>
