<svg width="12" height="12" viewBox="0 0 12 12" fill="none" xmlns="http://www.w3.org/2000/svg">
<path fill-rule="evenodd" clip-rule="evenodd" d="M0 6C0 2.685 2.685 0 6 0C9.315 0 12 2.685 12 6C12 9.315 9.315 12 6 12C2.685 12 0 9.315 0 6ZM1.2 6C1.2 8.646 3.354 10.8 6 10.8C8.646 10.8 10.8 8.646 10.8 6C10.8 3.354 8.646 1.2 6 1.2C3.354 1.2 1.2 3.354 1.2 6ZM5.02801 4.79683C4.94101 4.94984 4.88101 5.12384 4.84801 5.31885C4.81501 5.51386 4.80001 5.71487 4.80001 5.91887V6.08388C4.80001 6.28489 4.81201 6.47689 4.84501 6.6749C4.87801 6.87291 4.93801 7.04692 5.02501 7.19992C5.11201 7.35293 5.23201 7.47593 5.38201 7.57194C5.52601 7.66194 5.70301 7.70694 5.91901 7.71294C6.04802 7.71294 6.16802 7.69194 6.28202 7.65294C6.40202 7.61094 6.50702 7.55094 6.59702 7.47593C6.68702 7.40093 6.75902 7.31093 6.81302 7.20292C6.86702 7.09492 6.89702 6.98091 6.90302 6.85491H7.97703C7.96803 7.10092 7.90503 7.32893 7.79703 7.54493C7.68902 7.76094 7.53902 7.94695 7.35302 8.10896C7.16702 8.27096 6.95102 8.39697 6.70502 8.48997C6.45902 8.58297 6.19502 8.62798 5.91301 8.62798C5.52301 8.62798 5.18401 8.56197 4.89301 8.42697C4.60201 8.29196 4.362 8.10896 4.17 7.87795C3.978 7.64694 3.834 7.37693 3.741 7.06792C3.648 6.7589 3.6 6.43189 3.6 6.08388V5.91887C3.6 5.57386 3.645 5.24685 3.738 4.93784C3.831 4.62882 3.975 4.35881 4.167 4.12481C4.359 3.8908 4.59901 3.70779 4.88701 3.57278C5.17501 3.43778 5.51401 3.37178 5.90401 3.37178C6.21002 3.37178 6.48902 3.41978 6.74102 3.51278C6.99302 3.60579 7.20902 3.73479 7.38902 3.9058C7.56902 4.0768 7.71303 4.27781 7.81203 4.51182C7.91103 4.74583 7.96803 5.00384 7.97703 5.28585H6.90302C6.89702 5.15084 6.87002 5.02184 6.82202 4.90183C6.77402 4.78183 6.70802 4.67383 6.62102 4.58382C6.53402 4.49382 6.43202 4.42182 6.30902 4.36782C6.19502 4.31681 6.06301 4.29281 5.91901 4.28981C5.70001 4.29281 5.52301 4.34081 5.38201 4.42782C5.23501 4.52082 5.11501 4.64383 5.02801 4.79683Z" fill="black"/>
</svg>
