<svg width="12" height="12" viewBox="0 0 12 12" fill="none" xmlns="http://www.w3.org/2000/svg">
<path fill-rule="evenodd" clip-rule="evenodd" d="M0 6C0 2.685 2.685 0 6 0C9.315 0 12 2.685 12 6C12 9.315 9.315 12 6 12C2.685 12 0 9.315 0 6ZM1.2 6C1.2 8.646 3.354 10.8 6 10.8C8.646 10.8 10.8 8.646 10.8 6C10.8 3.354 8.646 1.2 6 1.2C3.354 1.2 1.2 3.354 1.2 6ZM5.02798 4.79688C4.94098 4.94989 4.88098 5.12389 4.84798 5.3189C4.81498 5.51391 4.79998 5.71491 4.79998 5.91892V6.08393C4.79998 6.28494 4.81198 6.47694 4.84498 6.67495C4.87798 6.87296 4.93798 7.04697 5.02498 7.19997C5.11198 7.35298 5.23199 7.47598 5.38199 7.57198C5.52599 7.66199 5.70299 7.70699 5.91899 7.71299C6.04799 7.71299 6.16799 7.69199 6.28199 7.65299C6.40199 7.61099 6.50699 7.55098 6.59699 7.47598C6.68699 7.40098 6.75899 7.31098 6.81299 7.20297C6.86699 7.09497 6.897 6.98096 6.903 6.85496H7.977C7.968 7.10097 7.905 7.32898 7.797 7.54498C7.689 7.76099 7.539 7.947 7.353 8.109C7.167 8.27101 6.951 8.39702 6.70499 8.49002C6.45899 8.58302 6.19499 8.62802 5.91299 8.62802C5.52299 8.62802 5.18399 8.56202 4.89298 8.42702C4.60198 8.29201 4.36198 8.109 4.16998 7.878C3.97798 7.64699 3.83398 7.37698 3.74098 7.06797C3.64798 6.75895 3.59998 6.43194 3.59998 6.08393V5.91892C3.59998 5.57391 3.64498 5.2469 3.73798 4.93789C3.83098 4.62887 3.97498 4.35886 4.16698 4.12485C4.35898 3.89085 4.59898 3.70784 4.88698 3.57283C5.17498 3.43783 5.51399 3.37183 5.90399 3.37183C6.20999 3.37183 6.48899 3.41983 6.74099 3.51283C6.993 3.60584 7.209 3.73484 7.389 3.90585C7.569 4.07685 7.713 4.27786 7.812 4.51187C7.911 4.74588 7.968 5.00389 7.977 5.2859H6.903C6.897 5.15089 6.87 5.02189 6.82199 4.90188C6.77399 4.78188 6.70799 4.67388 6.62099 4.58387C6.53399 4.49387 6.43199 4.42187 6.30899 4.36786C6.19499 4.31686 6.06299 4.29286 5.91899 4.28986C5.69999 4.29286 5.52299 4.34086 5.38199 4.42787C5.23499 4.52087 5.11498 4.64387 5.02798 4.79688Z" fill="white"/>
</svg>
